<!-- Generated by IcoMoon.io -->
<svg version="1.1" xmlns="http://www.w3.org/2000/svg" width="32" height="32" viewBox="0 0 32 32">
<title>circle</title>
<path fill="#fff" opacity="0.5" d="M7.25 24.242c-4.413-4.745-4.335-12.183 0.25-16.802 1.877-1.891 4.222-3.019 6.661-3.387l-0.135-4.053c-3.424 0.416-6.735 1.943-9.36 4.587-6.144 6.185-6.218 16.174-0.24 22.499l-3.397 3.419 10.751 0.587-0.029-11.384-4.501 4.533zM20.219 0.907l0.029 11.383 4.501-4.531c4.413 4.749 4.335 12.187-0.25 16.802-1.875 1.891-4.222 3.018-6.661 3.387l0.135 4.051c3.424-0.416 6.735-1.943 9.362-4.585 6.142-6.189 6.216-16.178 0.238-22.5l3.397-3.422-10.751-0.585z"></path>
</svg>
