<!-- Generated by IcoMoon.io -->
<svg version="1.1" xmlns="http://www.w3.org/2000/svg" width="32" height="32" viewBox="0 0 32 32">
<title>code</title>
<path fill="#fff" opacity="0.5" d="M9.154 23.483c-0.377 0-0.758-0.131-1.062-0.397l-8.092-7.086 8.541-7.48c0.659-0.575 1.67-0.52 2.256 0.131s0.528 1.646-0.133 2.224l-5.851 5.125 5.402 4.729c0.66 0.578 0.72 1.574 0.133 2.224-0.315 0.351-0.755 0.529-1.195 0.529zM23.459 23.48l8.541-7.48-8.092-7.086c-0.66-0.578-1.671-0.52-2.256 0.131s-0.528 1.646 0.133 2.224l5.402 4.731-5.851 5.123c-0.66 0.578-0.72 1.574-0.133 2.224 0.315 0.351 0.755 0.529 1.195 0.529 0.377 0 0.758-0.131 1.062-0.397zM15.978 25.712l3.198-18.904c0.145-0.859-0.443-1.67-1.315-1.813-0.875-0.145-1.697 0.436-1.839 1.295l-3.198 18.904c-0.145 0.859 0.443 1.67 1.315 1.813 0.089 0.014 0.176 0.020 0.264 0.020 0.768 0 1.446-0.547 1.575-1.315z"></path>
</svg>
