<!-- Generated by IcoMoon.io -->
<svg version="1.1" xmlns="http://www.w3.org/2000/svg" width="32" height="32" viewBox="0 0 32 32">
<title>eye</title>
<path fill="#fff" d="M16.007 6.416c-5.84 0-10.392 3.655-15.975 9.582 4.81 5.067 8.847 9.589 15.975 9.589s12.368-5.724 15.975-9.481c-3.693-4.402-8.933-9.689-15.975-9.689zM16.007 24.521c-6.328 0-10.148-3.925-14.507-8.523 5.186-5.407 9.309-8.518 14.507-8.518 6.154 0 10.963 4.437 14.541 8.581-3.519 3.669-8.284 8.459-14.541 8.459z"></path>
<path fill="#fff" d="M16.007 9.612c-3.524 0-6.39 2.866-6.39 6.39s2.866 6.39 6.39 6.39c3.524 0 6.39-2.866 6.39-6.39s-2.866-6.39-6.39-6.39zM16.007 21.326c-2.936 0-5.325-2.389-5.325-5.325s2.389-5.325 5.325-5.325c2.936 0 5.325 2.389 5.325 5.325s-2.389 5.325-5.325 5.325z"></path>
<path fill="#fff" d="M16.007 12.274c-2.055 0-3.728 1.672-3.728 3.728s1.672 3.727 3.728 3.727c2.055 0 3.728-1.672 3.728-3.727s-1.672-3.728-3.728-3.728zM16.007 18.664c-1.468 0-2.663-1.194-2.663-2.663s1.195-2.663 2.663-2.663 2.663 1.194 2.663 2.663c0 1.468-1.195 2.663-2.663 2.663z"></path>
</svg>
