<!-- Generated by IcoMoon.io -->
<svg version="1.1" xmlns="http://www.w3.org/2000/svg" width="32" height="32" viewBox="0 0 32 32">
<title>figma</title>
<path opacity="0.45" fill="#000" d="M9.6 22.4c0-0.849 0.337-1.663 0.937-2.263s1.414-0.937 2.263-0.937h3.2v3.2c0 0.849-0.337 1.663-0.937 2.263s-1.414 0.937-2.263 0.937c-0.849 0-1.663-0.337-2.263-0.937s-0.937-1.414-0.937-2.263zM12.8 19.2h3.2v-6.4h-3.2c-0.849 0-1.663 0.337-2.263 0.937s-0.937 1.414-0.937 2.263c0 0.849 0.337 1.663 0.937 2.263s1.414 0.937 2.263 0.937zM12.8 12.8h3.2v-6.4h-3.2c-0.849 0-1.663 0.337-2.263 0.937s-0.937 1.414-0.937 2.263c0 0.849 0.337 1.663 0.937 2.263s1.414 0.937 2.263 0.937zM16 12.8h3.2c0.849 0 1.663-0.337 2.263-0.937s0.937-1.414 0.937-2.263c0-0.849-0.337-1.663-0.937-2.263s-1.414-0.937-2.263-0.937h-3.2v6.4zM19.2 12.8c-0.633 0-1.252 0.188-1.778 0.539s-0.936 0.851-1.179 1.436c-0.242 0.585-0.306 1.228-0.182 1.849s0.428 1.191 0.876 1.638c0.448 0.447 1.018 0.752 1.638 0.876s1.264 0.060 1.849-0.182c0.585-0.242 1.085-0.652 1.436-1.179s0.539-1.145 0.539-1.778c0-0.849-0.337-1.663-0.937-2.263s-1.414-0.937-2.263-0.937z"></path>
</svg>
