<!-- Generated by IcoMoon.io -->
<svg version="1.1" xmlns="http://www.w3.org/2000/svg" width="32" height="32" viewBox="0 0 32 32">
<title>Fiverr-Logo</title>
<path fill="#003912" d="M28.471 14.077c-0.717 0-1.206 0.472-1.398 1.020v-1.005h-2.136v6.519h2.136v-3.56c0-0.65 0.526-1.176 1.176-1.176h1.061v-1.781l-0.839-0.016z"></path>
<path fill="#003912" d="M24.326 14.077c-0.717 0-1.206 0.472-1.398 1.020v-1.005h-2.136v6.519h2.136v-3.56c0-0.65 0.526-1.176 1.176-1.176h1.061v-1.781l-0.839-0.016z"></path>
<path fill="#003912" d="M7.556 14.092h-2.136v6.519h2.136v-6.519z"></path>
<path fill="#003912" d="M12.109 14.092l-1.146 3.767-1.145-3.767h-2.136l2.319 6.519h1.924l2.319-6.519h-2.136z"></path>
<path fill="#003912" d="M0 14.093v1.728h7.556v-1.728h-7.556z"></path>
<path fill="#003912" d="M3.384 13.657c0-0.38 0.308-0.69 0.69-0.69h1.348v-1.788h-1.852c-1.282 0-2.321 1.039-2.321 2.321v7.11h2.136v-6.954z"></path>
<path fill="#003912" d="M17.273 19.006c-0.886 0-1.357-0.486-1.419-1.036v-0.003c-0.004-0.040-0.007-0.080-0.007-0.121h4.527v-0.674c0-1.749-1.419-3.168-3.168-3.168h-0.26c-1.749 0-3.168 1.419-3.168 3.168v0.358c0 1.749 1.419 3.168 3.168 3.168h0.578c1.198 0 2.223-0.739 2.645-1.787l-1.884-0.55c-0.001 0-0.226 0.645-1.012 0.645zM16.95 15.535h0.204c0.592 0 1.074 0.468 1.1 1.054h-2.404c0.025-0.586 0.508-1.054 1.1-1.054z"></path>
<path fill="#003912" d="M30.657 18.138c-0.733 0-1.328 0.594-1.328 1.327s0.594 1.327 1.328 1.327c0.733 0 1.327-0.594 1.327-1.327s-0.594-1.327-1.327-1.327z"></path>
</svg>
