<!-- Generated by IcoMoon.io -->
<svg version="1.1" xmlns="http://www.w3.org/2000/svg" width="32" height="32" viewBox="0 0 32 32">
<title>globe</title>
<path fill="#fff" opacity="0.5" d="M16.001 0c-8.825 0-16.001 7.178-16.001 16s7.176 16 16.001 16c8.821 0 15.999-7.178 15.999-16s-7.178-16-15.999-16zM29.647 16c0 3.122-1.060 6-2.827 8.3-0.5-0.39-1.032-1.445-0.532-2.538 0.505-1.1 0.637-3.647 0.52-4.638-0.11-0.99-0.625-3.375-2.023-3.398-1.397-0.020-2.355-0.482-3.185-2.138-1.722-3.447 3.232-4.108 1.51-6.015-0.482-0.537-2.972 2.203-3.336-1.448-0.023-0.262 0.225-0.653 0.56-1.060 5.406 1.817 9.313 6.928 9.313 12.937zM14.126 2.488c-0.327 0.637-1.188 0.895-1.712 1.373-1.14 1.032-1.63 0.888-2.243 1.878-0.618 0.99-2.612 2.415-2.612 3.132s1.007 1.56 1.51 1.397c0.503-0.167 1.832-0.157 2.612 0.117 0.782 0.277 6.523 0.553 4.693 5.407-0.58 1.543-3.122 1.283-3.798 3.838-0.102 0.375-0.453 1.977-0.475 2.5-0.042 0.81 0.573 3.863-0.208 3.863-0.785 0-2.897-2.732-2.897-3.227s-0.547-2.23-0.547-3.717c0-1.485-2.53-1.462-2.53-3.437 0-1.78 1.372-2.667 1.063-3.522-0.302-0.85-2.712-0.878-3.716-0.983 1.755-4.552 5.883-7.93 10.859-8.62zM11.708 28.95c0.82-0.433 0.903-0.993 1.647-1.022 0.85-0.038 1.542-0.332 2.5-0.543 0.85-0.185 2.372-1.048 3.71-1.158 1.13-0.092 3.358 0.058 3.958 1.148-2.158 1.435-4.746 2.272-7.523 2.272-1.498 0-2.942-0.248-4.291-0.697z"></path>
</svg>
