<!-- Generated by IcoMoon.io -->
<svg version="1.1" xmlns="http://www.w3.org/2000/svg" width="32" height="32" viewBox="0 0 32 32">
<title>guage</title>
<path fill="#fff" opacity="0.5" d="M13.003 21.528c-1.102 1.922-0.36 3.5 1.171 4.386 1.53 0.888 3.266 0.746 4.371-1.175 1.102-1.918 8.075-19.047 7.469-19.399s-11.907 14.268-13.011 16.188zM16 9.327c0.701 0 1.382 0.059 2.050 0.175 0.701-0.881 1.485-1.853 2.248-2.774-1.363-0.395-2.803-0.612-4.298-0.612-8.971 0-16 7.592-16 17.283 0 0.596 0.026 1.191 0.078 1.771 0.078 0.885 0.864 1.533 1.734 1.458 0.882-0.082 1.531-0.859 1.453-1.743-0.043-0.485-0.066-0.987-0.066-1.485 0-7.892 5.622-14.072 12.8-14.072zM27.55 11.334c-0.446 1.204-0.918 2.431-1.334 3.49 1.624 2.36 2.584 5.32 2.584 8.576 0 0.507-0.024 1.019-0.069 1.514-0.080 0.885 0.568 1.665 1.448 1.747 0.048 0.003 0.098 0.006 0.147 0.006 0.818 0 1.517-0.628 1.592-1.461 0.053-0.594 0.082-1.201 0.082-1.806 0-4.742-1.685-8.974-4.45-12.066z"></path>
</svg>
