<!-- Generated by IcoMoon.io -->
<svg version="1.1" xmlns="http://www.w3.org/2000/svg" width="32" height="32" viewBox="0 0 32 32">
<title>Html</title>
<path opacity="0.45" fill="#000" d="M8.173 2.875h1.322v1.448h1.446v-4.323h-1.446v1.429h-1.322v-1.429h-1.445v4.323h1.445v-1.448z"></path>
<path opacity="0.45" fill="#000" d="M12.84 4.323h1.445v-2.889h1.271v-1.434h-3.988v1.434h1.271v2.889z"></path>
<path opacity="0.45" fill="#000" d="M17.603 2.181l0.995 1.536h0.024l0.994-1.536v2.142h1.44v-4.323h-1.507l-0.926 1.521-0.926-1.521h-1.506v4.323h1.413v-2.142z"></path>
<path opacity="0.45" fill="#000" d="M25.252 2.895h-2.032v-2.895h-1.445v4.323h3.477v-1.428z"></path>
<path opacity="0.45" fill="#000" d="M4.646 6.22l2.067 23.179 9.277 2.575 9.284-2.573 2.070-23.18h-22.698zM22.86 13.8h-10.879l0.26 2.911h10.361l-0.78 8.73-5.832 1.616-5.824-1.616-0.406-4.566h2.853l0.211 2.369 3.17 0.855 3.17-0.856 0.33-3.687h-9.853l-0.768-8.597h14.24l-0.254 2.842z"></path>
</svg>
