<!-- Generated by IcoMoon.io -->
<svg version="1.1" xmlns="http://www.w3.org/2000/svg" width="32" height="32" viewBox="0 0 32 32">
<title>JS</title>
<path opacity="0.45" fill="#000" d="M6.963 4.206h5.318v14.905c0 6.718-3.219 9.062-8.362 9.062-1.259 0-2.869-0.21-3.919-0.56l0.595-4.303c0.735 0.245 1.679 0.42 2.729 0.42 2.239 0 3.639-1.015 3.639-4.653v-14.87z"></path>
<path opacity="0.45" fill="#000" d="M16.898 22.329c1.399 0.735 3.639 1.47 5.913 1.47 2.449 0 3.744-1.015 3.744-2.589 0-1.434-1.12-2.309-3.954-3.289-3.919-1.399-6.508-3.569-6.508-7.032 0-4.024 3.394-7.068 8.922-7.068 2.694 0 4.618 0.525 6.018 1.19l-1.19 4.268c-0.91-0.455-2.624-1.12-4.898-1.12-2.309 0-3.429 1.085-3.429 2.274 0 1.505 1.295 2.169 4.374 3.359 4.163 1.54 6.088 3.709 6.088 7.068 0 3.954-3.009 7.312-9.482 7.312-2.694 0-5.353-0.735-6.683-1.47l1.085-4.374z"></path>
</svg>
