<!-- Generated by IcoMoon.io -->
<svg version="1.1" xmlns="http://www.w3.org/2000/svg" width="32" height="32" viewBox="0 0 32 32">
<title>sass</title>
<path opacity="0.45" fill="#000" d="M27.551 17.793c-1.119 0.005-2.088 0.275-2.898 0.674-0.295-0.595-0.6-1.114-0.65-1.504-0.060-0.455-0.125-0.724-0.055-1.264s0.385-1.304 0.38-1.359c-0.005-0.055-0.070-0.33-0.714-0.335s-1.199 0.125-1.264 0.295c-0.065 0.17-0.19 0.555-0.265 0.954-0.115 0.585-1.289 2.673-1.953 3.762-0.22-0.425-0.405-0.799-0.445-1.099-0.060-0.455-0.125-0.724-0.055-1.264s0.385-1.304 0.38-1.359c-0.005-0.055-0.070-0.33-0.714-0.335s-1.199 0.125-1.264 0.295c-0.065 0.17-0.135 0.569-0.265 0.954s-1.694 3.861-2.103 4.766c-0.21 0.459-0.39 0.829-0.52 1.079-0.020 0.040-0.035 0.065-0.045 0.085 0.015-0.025 0.025-0.050 0.025-0.040-0.11 0.215-0.175 0.335-0.175 0.335v0.005c-0.085 0.16-0.18 0.305-0.225 0.305-0.030 0-0.095-0.42 0.015-0.994 0.235-1.209 0.789-3.087 0.784-3.152-0.005-0.035 0.105-0.36-0.365-0.535-0.455-0.165-0.619 0.11-0.659 0.11s-0.070 0.1-0.070 0.1c0 0 0.505-2.118-0.969-2.118-0.919 0-2.198 1.009-2.827 1.923-0.395 0.215-1.249 0.679-2.148 1.174-0.345 0.19-0.699 0.385-1.034 0.57-0.025-0.025-0.045-0.050-0.070-0.075-1.788-1.908-5.091-3.257-4.951-5.82 0.050-0.934 0.375-3.387 6.35-6.364 4.896-2.438 8.812-1.768 9.487-0.28 0.969 2.123-2.093 6.075-7.179 6.644-1.938 0.215-2.957-0.534-3.212-0.814-0.265-0.295-0.305-0.31-0.405-0.255-0.165 0.090-0.060 0.35 0 0.505 0.15 0.395 0.774 1.094 1.838 1.444 0.934 0.305 3.207 0.475 5.955-0.589 3.087-1.189 5.49-4.501 4.786-7.274-0.719-2.818-5.39-3.742-9.812-2.173-2.633 0.934-5.48 2.403-7.529 4.316-2.433 2.278-2.823 4.261-2.663 5.091 0.57 2.942 4.626 4.861 6.25 6.28-0.080 0.045-0.155 0.085-0.225 0.125-0.814 0.405-3.907 2.023-4.681 3.732-0.874 1.938 0.145 3.327 0.814 3.517 2.088 0.579 4.226-0.465 5.375-2.178s1.009-3.952 0.48-4.971c-0.005-0.015-0.015-0.025-0.020-0.040 0.21-0.125 0.425-0.25 0.639-0.375 0.415-0.245 0.819-0.47 1.174-0.664-0.2 0.54-0.345 1.189-0.42 2.128-0.090 1.099 0.365 2.523 0.954 3.082 0.26 0.245 0.574 0.25 0.769 0.25 0.689 0 0.999-0.57 1.344-1.249 0.425-0.829 0.799-1.794 0.799-1.794s-0.47 2.608 0.814 2.608c0.47 0 0.939-0.605 1.149-0.914v0.005c0 0 0.010-0.020 0.035-0.060 0.050-0.075 0.075-0.12 0.075-0.12v-0.015c0.19-0.325 0.605-1.069 1.229-2.298 0.809-1.589 1.584-3.572 1.584-3.572s0.070 0.485 0.31 1.289c0.14 0.475 0.435 0.994 0.669 1.499-0.19 0.26-0.305 0.41-0.305 0.41s0 0.005 0.005 0.010c-0.15 0.2-0.32 0.415-0.494 0.625-0.639 0.759-1.399 1.629-1.499 1.878-0.12 0.295-0.090 0.514 0.14 0.684 0.17 0.13 0.47 0.15 0.784 0.125 0.575-0.040 0.979-0.18 1.174-0.27 0.31-0.11 0.669-0.285 1.009-0.529 0.624-0.459 1.004-1.119 0.969-1.988-0.020-0.48-0.175-0.959-0.365-1.409 0.055-0.080 0.115-0.165 0.17-0.25 0.989-1.444 1.754-3.027 1.754-3.027s0.070 0.484 0.31 1.289c0.12 0.405 0.355 0.849 0.569 1.284-0.929 0.754-1.504 1.629-1.703 2.203-0.37 1.064-0.080 1.544 0.465 1.654 0.245 0.050 0.595-0.065 0.854-0.175 0.325-0.11 0.714-0.285 1.079-0.555 0.624-0.459 1.229-1.104 1.189-1.978-0.015-0.395-0.125-0.789-0.27-1.169 0.784-0.33 1.804-0.51 3.102-0.36 2.783 0.325 3.327 2.063 3.222 2.788-0.105 0.729-0.689 1.129-0.884 1.249s-0.255 0.165-0.24 0.255c0.025 0.13 0.115 0.125 0.28 0.095 0.23-0.040 1.459-0.59 1.514-1.933 0.080-1.699-1.553-3.567-4.446-3.552zM6.105 25.022c-0.919 1.004-2.208 1.384-2.763 1.064-0.595-0.345-0.36-1.823 0.774-2.893 0.689-0.649 1.579-1.249 2.168-1.619 0.135-0.080 0.33-0.2 0.57-0.345 0.040-0.025 0.060-0.035 0.060-0.035 0.045-0.030 0.095-0.055 0.145-0.085 0.415 1.519 0.015 2.857-0.954 3.912zM12.819 20.456c-0.32 0.784-0.994 2.783-1.404 2.678-0.35-0.090-0.565-1.614-0.070-3.112 0.25-0.754 0.779-1.654 1.094-2.003 0.505-0.565 1.059-0.744 1.189-0.52 0.175 0.295-0.61 2.468-0.809 2.957zM18.364 23.104c-0.135 0.070-0.26 0.115-0.32 0.080-0.045-0.025 0.055-0.12 0.055-0.12s0.694-0.744 0.969-1.084c0.16-0.2 0.345-0.435 0.545-0.694 0 0.025 0.005 0.050 0.005 0.080-0.005 0.894-0.864 1.499-1.254 1.739zM22.641 22.13c-0.1-0.070-0.085-0.305 0.25-1.034 0.13-0.285 0.43-0.764 0.949-1.224 0.060 0.19 0.095 0.37 0.095 0.539-0.005 1.124-0.809 1.544-1.294 1.719z"></path>
</svg>
