<!-- Generated by IcoMoon.io -->
<svg version="1.1" xmlns="http://www.w3.org/2000/svg" width="32" height="32" viewBox="0 0 32 32">
<title>Tools</title>
<path fill="#fff" opacity="0.5" d="M4.971 10.979c1.499-1.17 2.742-0.363 4.402 1.567 0.186 0.218 0.437-0.037 0.58-0.162 0.141-0.126 2.331-2.106 2.439-2.197 0.106-0.095 0.235-0.273 0.066-0.471-0.172-0.199-0.794-1.009-1.194-1.535-2.905-3.817 7.946-6.406 6.28-6.446-0.848-0.023-4.251-0.063-4.76-0.006-2.061 0.218-4.65 2.153-5.952 3.055-1.705 1.172-2.341 1.859-2.445 1.954-0.482 0.423-0.077 1.399-0.951 2.169-0.924 0.812-1.501 0.197-2.036 0.668-0.265 0.236-1.007 0.794-1.219 0.98-0.214 0.189-0.252 0.507-0.034 0.76 0 0 2.031 2.253 2.201 2.453 0.169 0.197 0.628 0.368 0.911 0.115 0.284-0.252 1.015-0.893 1.138-1.005 0.125-0.107-0.080-1.39 0.575-1.9zM14.142 11.814c-0.193-0.224-0.432-0.231-0.638-0.047l-2.304 2.021c-0.181 0.161-0.207 0.457-0.043 0.646l13.325 15.234c0.312 0.36 0.852 0.397 1.207 0.086l1.558-1.312c0.357-0.315 0.394-0.86 0.084-1.223l-13.189-15.403zM31.909 5.33c-0.119-0.797-0.53-0.631-0.744-0.294-0.214 0.341-1.158 1.779-1.547 2.431-0.386 0.646-1.337 1.922-3.107 0.662-1.844-1.309-1.203-2.222-0.882-2.837 0.323-0.618 1.314-2.352 1.457-2.566 0.143-0.218-0.024-0.851-0.596-0.586s-4.053 1.654-4.535 3.648c-0.493 2.027 0.413 3.84-1.366 5.639l-2.158 2.259 2.167 2.527 2.657-2.534c0.633-0.639 1.986-1.261 3.21-0.98 2.624 0.596 4.055-0.394 4.918-2.030 0.774-1.462 0.646-4.542 0.525-5.339zM4.335 27.382c-0.334 0.337-0.334 0.886 0 1.223l1.528 1.501c0.334 0.337 0.864 0.195 1.199-0.142l7.884-7.786-2.415-2.766-8.195 7.97z"></path>
</svg>
