<!-- Generated by IcoMoon.io -->
<svg version="1.1" xmlns="http://www.w3.org/2000/svg" width="32" height="32" viewBox="0 0 32 32">
<title>Upwork</title>
<path fill="#6fda44" d="M8.757 17.271c-0.52 0-1.007-0.223-1.45-0.585l0.108-0.511 0.005-0.019c0.096-0.544 0.401-1.458 1.338-1.458 0.703 0 1.274 0.578 1.274 1.288-0.002 0.708-0.574 1.285-1.274 1.285zM8.757 13.394c-1.197 0-2.125 0.786-2.502 2.078-0.576-0.873-1.012-1.922-1.267-2.805h-1.288v3.387c0 0.668-0.539 1.212-1.199 1.212s-1.199-0.544-1.199-1.212v-3.387h-1.288v3.387c-0.005 1.387 1.113 2.526 2.486 2.526s2.49-1.139 2.49-2.526v-0.568c0.251 0.528 0.558 1.061 0.93 1.534l-0.789 3.75h1.319l0.572-2.72c0.501 0.324 1.078 0.528 1.738 0.528 1.413 0 2.563-1.169 2.563-2.597 0-1.425-1.15-2.587-2.563-2.587z"></path>
<path fill="#000" d="M15.253 13.54l0.832 3.387 0.916-3.387h1.092l-1.408 4.895h-1.092l-0.864-3.409-0.862 3.406h-1.092l-1.408-4.895h1.092l0.916 3.387 0.832-3.387h1.047v0.002zM20.704 13.394c-1.417 0-2.565 1.162-2.565 2.592 0 1.432 1.15 2.592 2.565 2.592 1.417 0 2.567-1.16 2.567-2.592s-1.15-2.592-2.567-2.592zM20.704 17.513c-0.834 0-1.509-0.682-1.509-1.524s0.677-1.524 1.509-1.524c0.834 0 1.509 0.682 1.509 1.524 0 0.84-0.675 1.524-1.509 1.524zM26.389 14.636c-0.733 0-1.326 0.601-1.326 1.34v2.457h-1.099v-4.893h1.099v0.753c0 0 0.468-0.755 1.431-0.755h0.337v1.098h-0.443zM30.077 15.796c0.78-0.445 1.31-1.29 1.31-2.258h-1.099c0 0.817-0.656 1.479-1.464 1.479h-0.148v-3.84h-1.099v7.256h1.099v-2.306h0.131c0.108 0 0.248 0.071 0.311 0.159l1.56 2.147h1.317l-1.919-2.637z"></path>
</svg>
